<?xml version="1.0" encoding="utf-8"?>
<!-- Generator: Adobe Illustrator 21.0.2, SVG Export Plug-In . SVG Version: 6.00 Build 0)  -->
<svg version="1.1" id="Слой_1" xmlns="http://www.w3.org/2000/svg" xmlns:xlink="http://www.w3.org/1999/xlink" x="0px" y="0px"
	 viewBox="0 0 973 189" style="enable-background:new 0 0 973 189;" xml:space="preserve">
<style type="text/css">
	.st0{fill:#E20020;}
</style>
<path class="st0" d="M974,129c-2,0.2-3.9,0.5-5.9,0.5c-320.4,0-640.8,0-961.2,0c-2,0-3.9-0.3-5.9-0.5c0-2.7,0-5.3,0-8
	c2.2,0.1,4.3,0.2,6.5,0.2c320,0,640,0,960,0c2.2,0,4.3-0.1,6.5-0.2C974,123.7,974,126.3,974,129z"/>
<path class="st0" d="M60,1c2.1,0.5,4.2,1,6.3,1.4C85.8,6.6,97.4,18.7,101.5,38c2.4,11.2,2.2,22.5-0.7,33.7
	c-5.1,20.1-20.6,32.6-42.9,33.9c-6.6,0.4-13.4,0.1-19.8-1.2c-20.6-4.1-33.7-19.3-36-40.6c-0.2-2-0.7-3.9-1.1-5.8c0-2.7,0-5.3,0-8
	c0.4-2.3,0.8-4.5,1.1-6.8C4.3,21.6,17.5,6.8,38.3,2.4C40.2,2,42.1,1.5,44,1C49.3,1,54.7,1,60,1z M76.7,53.8
	c-2.1-7.7-3.4-15.2-6.2-21.9c-3.3-7.7-10.2-11.1-18.6-11c-8.2,0.1-14.6,3.7-18.1,11.1C27.1,46.3,27.1,60.8,34,75
	c3.5,7.1,9.6,10.9,17.6,11.1c8.2,0.2,15-3.1,18.4-10.5C73.1,68.8,74.5,61.2,76.7,53.8z"/>
<path class="st0" d="M1,145c5.9-0.9,7.8,2.3,9,7.5c2.2,9.7,5.2,19.2,8.9,28.9c0.9-3.4,1.9-6.7,2.7-10.1c1.8-7.3,3.8-14.5,5.3-21.8
	c0.7-3.4,2.2-4.5,5.7-4.5c3.3,0.1,4.6,1.1,5.3,4.3c2.5,10.7,5.3,21.3,8.3,33.2c0.9-2.2,1.5-3.2,1.8-4.3c2.7-9.4,5.5-18.8,7.8-28.4
	c1-4.2,2.9-5.5,7.5-4.1c-1.2,3.9-2.3,7.8-3.5,11.7c-2.6,8.4-5.7,16.7-7.6,25.3c-1.3,5.8-4.2,7.3-10.1,5.7c-3-11.7-6-23.9-9.1-36
	c-0.3-0.1-0.6-0.1-0.9-0.2c-0.4,1.4-0.9,2.8-1.3,4.2c-2.2,8.5-4.3,17.1-6.4,25.6c-1.8,7.2-1.8,7.2-10.1,6.6
	c-3.7-12.2-7.4-24.5-11.2-36.9c-0.5-1.7-1.4-3.3-2.1-4.9C1,146.3,1,145.7,1,145z"/>
<path class="st0" d="M539,190c-8.2-2.9-14.9-7.1-17.1-16.4c-3.8-16.1,5.9-28.8,22.4-29c2.5,0,5,0.2,7.5,0.5c3.9,0.4,6.4,2,4.6,6.8
	c-9.8-3.1-19.6-4.5-26.4,5.9c-3.8,5.9-3.1,15,1.1,20.3c5.3,6.5,12.2,7.4,20.2,5.5c0-4.4,0-8.7,0-13.4c-2.9-0.2-5.7-0.3-8.6-0.4
	c-0.8-2.9-0.9-4.9,3-4.7c3.8,0.2,7.6,0,11.7,0c0,7.8,0,15,0,22.6c-2,0.7-4.2,1.5-6.4,2.3C547,190,543,190,539,190z"/>
<path class="st0" d="M686,190c-7.5-2.4-14.3-5.8-16.8-14.1c-2.8-9.3-2.3-18.3,5.3-25.4c7.8-7.2,17.3-7,26.8-4.4
	c1.3,0.3,1.8,3.4,2.8,5.6c-5.2-0.8-8.9-1.7-12.7-1.8c-6.9-0.3-12.4,2.7-15.4,9c-3.2,6.7-2.8,13.3,1.8,19.3
	c4.4,5.8,10.6,7.2,17.4,5.9c1.1-0.2,2.6-1.9,2.7-3.1c0.4-3.4,0.1-6.9,0.1-9.4c-2.6-3.6-9.6,1.6-9-6.3c5,0,9.6,0,14.8,0
	c0,7,0.4,14-0.3,20.9c-0.1,1.4-4.3,2.5-6.6,3.7C693.3,190,689.7,190,686,190z"/>
<path class="st0" d="M361,190c-9.4-3.7-12.4-11.1-12.1-20.6c0.2-7.8,0.1-15.6,0.1-23.8c1.9-0.1,3.5-0.3,6-0.4c0,5.2-0.1,10.1,0,15
	c0.1,5.1-0.1,10.4,0.6,15.4c0.9,6.3,4.8,9.2,10.6,9c5.6-0.2,9.3-3,10-9.1c0.8-7.1,0.6-14.3,0.8-21.4c0.1-2.6,0-5.3,0-8.4
	c2,0,3.7,0,5.4,0c0,10.3,0.4,20.6-0.1,30.8c-0.4,7.3-5.7,11.2-12.2,13.5C367,190,364,190,361,190z"/>
<path class="st0" d="M473.8,3c13.4,0,26.4-0.1,39.3,0.2c1.4,0,3.4,2.3,3.9,3.9c6.3,19.3,12.5,38.6,18.7,57.9c0.5,1.5,1,3,2,5.7
	c7.8-23.3,15.2-45.3,22.6-67.5c13.4,0,26.7,0,40.4,0c0,33.5,0,66.9,0,100.6c-8.4,0-16.6,0-25.3,0c0-25.1,0-50.1,0-75.2
	c-0.3-0.1-0.5-0.1-0.8-0.2c-0.5,0.9-1.1,1.7-1.4,2.6c-7.5,22.7-15.1,45.4-22.4,68.2c-1.2,3.9-3,5.3-7.1,5c-5-0.4-10-0.3-15,0
	c-3.5,0.2-4.9-1.1-5.9-4.4c-7.2-23.2-14.5-46.3-21.9-69.5c-0.2-0.7-0.7-1.4-1.7-3.4c0,26.4,0,51.4,0,76.7c-8.4,0-16.8,0-25.6,0
	C473.8,70.4,473.8,37,473.8,3z"/>
<path class="st0" d="M182.4,69.3c3.5-10.5,7.1-21,10.6-31.5c3.5-10.4,6.8-20.9,10.5-31.2c0.5-1.5,2.4-3.4,3.8-3.4
	C219.7,2.9,232.2,3,245,3c0,33.7,0,67.1,0,100.8c-8.4,0-16.8,0-25.4,0c0-25.4,0-50.5,0-75.6c-0.3-0.1-0.6-0.1-0.9-0.2
	c-1.6,4.6-3.2,9.2-4.7,13.8c-6.4,19.3-12.8,38.5-19,57.8c-1.1,3.3-2.5,4.9-6.2,4.7c-5.3-0.4-10.7-0.3-16,0c-3.3,0.2-4.6-1.1-5.5-4.1
	c-7.1-22.7-14.3-45.4-21.5-68c-0.4-1.3-1-2.6-2.2-3.7c0,25,0,50,0,75.4c-8.4,0-16.8,0-25.5,0c0-33.5,0-66.7,0-100.8
	c4,0,7.9,0,11.8,0c8.5,0,17,0.2,25.5-0.1c3.6-0.1,5.2,1.1,6.3,4.6c6.1,19.9,12.5,39.6,18.9,59.5c0.2,0.8,0.5,1.5,0.8,2.3
	C181.7,69.2,182.1,69.3,182.4,69.3z"/>
<path class="st0" d="M357.1,104.1c-10.5,0-20.7,0.2-30.8-0.2c-1.5-0.1-3.4-2.3-4.3-3.9c-10.4-20.1-20.7-40.2-31-60.4
	c-0.6-1.1-1.3-2.2-2.6-4.5c0,23.7,0,45.9,0,68.6c-7.8,0-15.7,0-23.9,0c0-33.5,0-66.8,0-100.7c10.8,0,21.4-0.1,32,0.2
	c1.3,0,3.1,2.1,3.9,3.7c10.7,21.2,21.3,42.5,32.5,65c0-23.6,0-45.9,0-68.5c8.2,0,15.9,0,24.1,0C357.1,36.6,357.1,70,357.1,104.1z"/>
<path class="st0" d="M708.8,104.8c0-34.7,0-67.9,0-101.1c17.2,0,34.1-0.1,51,0.1c3.8,0,7.6,1,11.3,1.9c19,4.5,30.9,16.2,33.1,35.9
	c1,9.1,0.8,18.8-1.1,27.7c-4.5,20.8-19.8,30.9-39.6,33.2C745.6,104.5,727.4,104.1,708.8,104.8z M735.6,22.9c0,20.5,0,40.7,0,61.2
	c14.1,0.4,28.6,1.8,37.1-12c7.3-11.9,7.4-25.1,0-37C764.1,21.3,749.8,22.4,735.6,22.9z"/>
<path class="st0" d="M971.9,104.1c-9,0-17.7,0.1-26.3-0.1c-1.2,0-3-1.8-3.5-3.2c-2-4.8-3.6-9.7-5.2-14.6c-0.8-2.6-2.1-3.7-5-3.7
	c-10.3,0.2-20.7,0.2-31,0c-2.8,0-4.2,0.9-5.1,3.5c-1.7,5.1-3.5,10.1-5.6,15c-0.6,1.3-2.4,2.9-3.7,2.9c-8,0.3-16,0.1-24.6,0.1
	c3.8-10,7.4-19.4,11-28.9c8.6-22.7,17.3-45.4,25.8-68.1c1.2-3.1,2.6-4.3,6-4.2c8.5,0.3,17,0,25.5,0.2c1.5,0,3.7,1.5,4.2,2.8
	c12.5,31.9,24.7,63.9,37,95.9C971.8,102.2,971.8,102.8,971.9,104.1z M929.2,63.2c-4.1-13.3-7.9-26-11.8-38.7
	c-0.4,0.1-0.7,0.1-1.1,0.2c-4.2,12.7-8.3,25.4-12.7,38.6C912.3,63.2,920.3,63.2,929.2,63.2z"/>
<path class="st0" d="M687.3,62c-13.9,0-27.3,0-41.2,0c0,7.7,0,15.1,0,23.1c15,0,30,0,45.4,0c0,6.5,0,12.4,0,18.7
	c-24,0-47.9,0-72.1,0c0-33.4,0-66.7,0-100.4c23.3,0,46.6,0,70.3,0c0,6,0,12,0,18.4c-14.5,0-28.7,0-43.5,0c0,7.1,0,13.8,0,21.2
	c13.5,0,27.3,0,41.2,0C687.3,49.6,687.3,55.6,687.3,62z"/>
<path class="st0" d="M404.7,103.8c-8.8,0-17.3,0-26.1,0c0-33.6,0-66.8,0-100.4c8.7,0,17.2,0,26.1,0
	C404.7,36.8,404.7,70.1,404.7,103.8z"/>
<path class="st0" d="M849.5,103.9c-8.8,0-17.2,0-26,0c0-33.5,0-66.8,0-100.6c8.5,0,17.1,0,26,0C849.5,36.6,849.5,70,849.5,103.9z"/>
<path class="st0" d="M421.2,74.5c0-6.3,0-12.1,0-18.2c12.8,0,25.4,0,38.3,0c0,6,0,12,0,18.2C446.8,74.5,434.2,74.5,421.2,74.5z"/>
<path class="st0" d="M804.9,145.7c0,14.4,0,28.5,0,43c-1.8,0-3.5,0-5.7,0c0-11.8,0-23.5,0-35.2c-0.4-0.1-0.7-0.2-1.1-0.2
	c-1.2,3-2.3,6-3.5,9c-3,7.9-6,15.9-9.2,23.7c-0.6,1.4-2.7,2.9-4.1,2.9c-1.4,0-3.6-1.5-4.1-2.9c-4.4-10.9-8.5-21.9-13.8-32.8
	c0,11.8,0,23.5,0,35.6c-2.3,0.1-3.9,0.2-5.8,0.3c0-14.6,0-28.8,0-43c8.5-2.2,9.5-1.7,12.4,6c3.6,9.6,7.3,19.2,11.4,30
	c3.9-10.6,7.4-19.9,10.8-29.2C795.3,144.6,795.2,144.6,804.9,145.7z"/>
<path class="st0" d="M469.7,188.5c-5.2,1.7-8.1,0-10.4-4.7c-4.3-8.6-9.2-17-13.8-25.4c-0.7-1.3-1.6-2.6-3.4-3.6
	c0,11.2,0,22.4,0,33.9c-2.1,0.1-3.7,0.2-5.6,0.3c0-14.5,0-28.8,0-43c6.8-1.8,7.5-1.6,10.8,4.5c5.3,9.5,10.5,19.1,16.8,28.4
	c0-11,0-22,0-33.3c2.1-0.1,3.7-0.2,5.7-0.3C469.7,159.7,469.7,174,469.7,188.5z"/>
<path class="st0" d="M268.3,188.7c0-14.6,0-28.7,0-43.8c6.6,0.5,13,0.5,19.3,1.5c4.1,0.6,7,3.5,7.5,8.2c0.6,5.7-1.6,9.7-6.2,11.3
	c2.4,3,5.8,5.7,7,9.1c2.3,7.1-2,12.8-10.3,13.7C280.1,189.2,274.4,188.7,268.3,188.7z M274.5,184.1c5.4-0.2,11,1.6,14.4-3.7
	c1.1-1.8,1.1-5.6-0.1-7.4c-3.3-5.1-8.8-4-14.3-3.9C274.5,174.1,274.5,178.7,274.5,184.1z M273.7,163.5c9.1,1.1,14,0,14.8-3.7
	c0.5-2.2,0-6.6-1.2-7c-3.7-1.5-8-1.6-12.1-2.3C274.8,154.7,274.3,159,273.7,163.5z"/>
<path class="st0" d="M858.4,188.6c0-14.6,0-28.7,0-43.2c5.2,0,10.1-0.3,15,0.1c5.1,0.4,10,1.7,11.5,7.7c1.5,6-0.3,9.3-5.7,12.6
	c2.3,3.2,5.7,6.1,6.8,9.8c2,6.7-2,11.9-9.6,12.8C870.6,189.2,864.6,188.6,858.4,188.6z M864.1,184.1c2.7,0,4.8,0.1,7,0
	c3.8-0.2,7.8-1,8.5-5.2c0.4-2.5-0.8-6.8-2.6-7.6c-3.5-1.6-7.8-1.5-11.8-1.9c-0.3,0-1,1.3-1,2C864.1,175.4,864.1,179.5,864.1,184.1z
	 M863.5,164.2c6.3-0.5,12.1,1.5,15-4.3c0.9-1.8,0.1-6.5-1.1-7c-3.8-1.5-8.1-1.7-12.2-2.4C864.7,154.7,864.2,159,863.5,164.2z"/>
<path class="st0" d="M208.1,166.9c3.6,7.3,7.1,14.3,10.6,21.3c-6.3,1.5-6.3,1.5-8.8-3.9c-1.2-2.6-2.3-5.2-3.4-7.7
	c-3.1-6.9-4.1-7.5-12.5-6.6c0,6.1,0,12.3,0,18.8c-2.2,0-3.8,0-5.7,0c0-14.4,0-28.7,0-43.8c6.1,0.3,12.1,0.3,18,1.1
	c5.7,0.7,8.5,3.8,9.2,9c0.7,5.2-1.4,9.1-6.3,11.2C208.6,166.5,208.3,166.8,208.1,166.9z M194.2,164.1c5.4,0,10.9,1.4,13.9-4
	c0.9-1.6,0.7-4.9-0.4-6.4c-3.4-4.5-8.6-3.1-13.6-2.9C194.2,155.3,194.2,159.4,194.2,164.1z"/>
<path class="st0" d="M966.4,163.8c0-6.4,0-12.2,0-18.2c2.3,0,4,0,5.9,0c0,14.5,0,28.8,0,43.2c-1.9,0-3.5,0-5.8,0
	c0-6.5,0-12.9,0-19.8c-6.6,0-12.6-0.2-18.5,0.2c-1,0.1-2.7,2.1-2.8,3.4c-0.3,5.3-0.1,10.6-0.1,16.2c-2.1,0.1-3.7,0.2-5.6,0.3
	c0-14.6,0-28.8,0-43.4c1.5-0.1,3.1-0.2,5.6-0.4c0,4.9,0.2,9.5-0.1,14c-0.2,3.4,0.8,4.8,4.5,4.7C955,163.6,960.4,163.8,966.4,163.8z"
	/>
<path class="st0" d="M118.1,169c0,5.2,0,9.7,0,15c4.9,0,9.5,0.1,14.1,0c3.4-0.1,4.6,1.1,3.4,4.8c-7.6,0-15.3,0-23.4,0
	c0-14.4,0-28.6,0-43.1c7.9,0,15.6,0,23.6,0c0,1.6,0,3.1,0,4.9c-5.9,0-11.5,0-17.5,0c0,4.5,0,8.5,0,13.2c5.2,0,10.5,0,16,0
	c0,2,0,3.4,0,5.4C128.9,169,123.6,169,118.1,169z"/>
</svg>
